<?xml version="1.0" encoding="iso-8859-1"?>
<!-- Generator: Adobe Illustrator 16.0.0, SVG Export Plug-In . SVG Version: 6.00 Build 0)  -->
<!DOCTYPE svg PUBLIC "-//W3C//DTD SVG 1.1//EN" "http://www.w3.org/Graphics/SVG/1.1/DTD/svg11.dtd">
<svg version="1.1" id="Capa_1" xmlns="http://www.w3.org/2000/svg" xmlns:xlink="http://www.w3.org/1999/xlink" x="0px" y="0px"
	 width="283.245px" height="283.245px" viewBox="0 0 283.245 283.245" style="enable-background:new 0 0 283.245 283.245;"
	 xml:space="preserve">
<g>
	<path d="M274.154,29.23l-29.52-25.94c-4.996-4.387-12.46-4.387-17.462,0l-29.507,25.94c-2.865,2.51-4.492,6.125-4.492,9.932v39.776
		h-8.814V39.162c0-3.807-1.64-7.422-4.492-9.932L150.359,3.29c-5.002-4.387-12.466-4.387-17.465,0l-29.507,25.94
		c-2.867,2.51-4.498,6.125-4.498,9.932v39.776h-8.809V39.162c0-3.807-1.642-7.422-4.495-9.932L56.069,3.29
		c-4.993-4.387-12.463-4.387-17.456,0L9.1,29.23c-2.861,2.51-4.489,6.125-4.489,9.932v230.86c0,7.303,5.915,13.223,13.22,13.223
		h59.015c7.311,0,13.234-5.92,13.234-13.223v-57.729h8.809v57.729c0,7.303,5.918,13.223,13.229,13.223h59.019
		c7.302,0,13.223-5.92,13.223-13.223v-57.729h8.814v57.729c0,7.303,5.921,13.223,13.223,13.223h59.016
		c7.308,0,13.222-5.92,13.222-13.223V39.162C278.646,35.355,277.001,31.74,274.154,29.23z M98.89,185.848h-8.809v-80.452h8.809
		V185.848z M193.174,185.848h-8.814v-80.452h8.814V185.848z"/>
</g>
<g>
</g>
<g>
</g>
<g>
</g>
<g>
</g>
<g>
</g>
<g>
</g>
<g>
</g>
<g>
</g>
<g>
</g>
<g>
</g>
<g>
</g>
<g>
</g>
<g>
</g>
<g>
</g>
<g>
</g>
</svg>
